<svg width="133" height="64" viewBox="0 0 133 64" fill="none" xmlns="http://www.w3.org/2000/svg">
<path opacity="0.3" fill-rule="evenodd" clip-rule="evenodd" d="M131.295 3.59659C131.295 3.59659 122.303 24.6341 112.782 24.6341C103.79 24.6341 103.79 15.7091 94.2693 15.7091C85.2773 15.7091 85.2773 30.3717 75.7565 30.3717C66.7645 30.3717 66.7645 1.68408 57.2436 1.68408C48.2517 1.68408 48.2517 45.6717 38.7308 45.6717C29.7389 45.6717 29.7389 27.8217 20.218 27.8217C11.2261 27.8217 1.70518 43.1217 1.70518 43.1217V63.9999H131.295V3.59659Z" fill="url(#paint0_linear_745_2096)"/>
<path fill-rule="evenodd" clip-rule="evenodd" d="M57.2434 0.841797C52.9469 0.841797 51.0612 5.968 47.7073 21.7222L47.0331 24.8961C43.9452 39.239 41.8981 44.6313 38.7306 44.6313C35.6279 44.6313 33.8759 42.7327 30.9026 37.1058L30.4306 36.2033C26.8591 29.3469 24.6521 26.8616 20.2178 26.8616C19.7018 26.8616 19.1796 26.9069 18.6518 26.9957C14.8578 27.6346 10.9125 30.4563 6.9585 34.7529C5.40102 36.4453 3.94896 38.2554 2.63945 40.0654C2.29564 40.5406 1.98007 40.9906 1.69482 41.4091L0.979523 42.4925L2.43039 43.3773L2.84348 42.7438C3.18513 42.2318 3.58122 41.6604 4.02675 41.0446C5.29994 39.2848 6.71157 37.5251 8.22027 35.8857C11.9396 31.8442 15.6147 29.2157 18.9383 28.656C19.3732 28.5828 19.7997 28.5458 20.2178 28.5458C23.5383 28.5458 25.4153 30.4458 28.3656 35.9357L29.6741 38.4167C32.7898 44.2165 34.8419 46.3155 38.7306 46.3155C43.3398 46.3155 45.3766 40.8602 48.8558 24.5245L49.6791 20.6608C52.5455 7.46958 54.4405 2.52601 57.2434 2.52601C60.5577 2.52601 62.5273 5.96547 65.6831 15.5966L66.4832 18.05C69.6877 27.7391 71.6688 31.0844 75.7562 31.0844C79.8689 31.0844 82.0831 29.2667 85.298 24.3763L86.7423 22.1312C89.5127 17.913 91.2327 16.4879 94.2691 16.4879C97.82 16.4879 99.6901 17.4575 102.727 20.3094L103.328 20.8824C106.765 24.1811 108.849 25.3727 112.782 25.3727C117.339 25.3727 121.877 21.2894 126.324 14.5174C127.847 12.1977 129.251 9.71668 130.504 7.23606L131.006 6.22529C131.085 6.06219 131.163 5.90189 131.238 5.74454L131.921 4.27704L132.08 3.91658L130.51 3.25901L130.114 4.13818L129.697 5.0247C129.476 5.48624 129.236 5.9742 128.978 6.48415C127.752 8.912 126.378 11.3394 124.893 13.6009C120.745 19.9182 116.555 23.6885 112.782 23.6885C109.541 23.6885 107.811 22.7768 104.903 20.0418L104.318 19.4843C100.75 16.0591 98.5198 14.8037 94.2691 14.8037C90.3351 14.8037 88.2609 16.636 85.0055 21.6855L84.4885 22.497C81.2125 27.6628 79.3343 29.4002 75.7562 29.4002C72.8266 29.4002 71.0071 26.2862 68.1023 17.5206L67.1041 14.4661C63.7705 4.39362 61.6388 0.841797 57.2434 0.841797Z" fill="#9B6EEE"/>
<defs>
<linearGradient id="paint0_linear_745_2096" x1="130" y1="1.78277" x2="130" y2="62.8535" gradientUnits="userSpaceOnUse">
<stop stop-color="#9B6EEE"/>
<stop offset="1" stop-color="#9B6EEE" stop-opacity="0.03"/>
</linearGradient>
</defs>
</svg>
