<svg width="135" height="64" viewBox="0 0 135 64" fill="none" xmlns="http://www.w3.org/2000/svg">
<path opacity="0.3" fill-rule="evenodd" clip-rule="evenodd" d="M20.5097 1.72949C29.6313 1.72949 29.6313 43.5362 39.2896 43.5362C48.4113 43.5362 48.4113 28.0859 58.0695 28.0859C67.1912 28.0859 67.1912 22.6328 76.8494 22.6328C85.9711 22.6328 85.9711 23.5417 95.6294 23.5417C104.751 23.5417 104.751 31.7212 114.409 31.7212C123.531 31.7212 133.189 55.3511 133.189 55.3511V63.9998H1.72974V20.8152C1.72974 20.8152 10.8514 1.72949 20.5097 1.72949Z" fill="url(#paint0_linear_745_2113)"/>
<path fill-rule="evenodd" clip-rule="evenodd" d="M20.5095 0.864746C24.7053 0.864746 26.6474 5.47582 29.8433 19.3577L30.8752 23.9133C34.0022 37.5752 36.0629 42.6714 39.2894 42.6714C42.4747 42.6714 44.2349 41.0474 47.2338 36.1896L47.7391 35.362C51.2532 29.5798 53.4815 27.3566 57.6707 27.2272L58.0693 27.2211C61.4052 27.2211 63.1977 26.6653 66.0986 25.0286L66.8237 24.6116C70.4178 22.5244 72.6379 21.7681 76.8492 21.7681L78.353 21.7753C80.4732 21.7974 82.0471 21.8722 83.9185 22.026L87.4341 22.3487C89.7338 22.5523 91.5241 22.6463 94.1233 22.6705L95.6292 22.6769C99.4287 22.6769 101.524 23.6815 104.757 26.4351L105.386 26.9794C108.717 29.8811 110.626 30.8565 114.409 30.8565C114.957 30.8565 115.511 30.9298 116.068 31.0733C119.974 32.0792 123.956 36.4346 127.961 43.0904C129.532 45.702 130.998 48.4959 132.319 51.2892L132.849 52.4273C133.018 52.7946 133.178 53.1492 133.329 53.4898L133.741 54.4339L133.99 55.024L132.388 55.6785L131.963 54.6818L131.518 53.6792C131.283 53.1572 131.028 52.6055 130.756 52.0289C129.457 49.284 128.018 46.5396 126.479 43.9822C122.7 37.7021 118.951 33.602 115.637 32.7484C115.217 32.6404 114.808 32.5862 114.409 32.5862C110.3 32.5862 108.058 31.5279 104.695 28.6671L104.049 28.1085C100.997 25.4503 99.2477 24.4939 96.0901 24.4124L94.0992 24.4C91.4565 24.3753 89.6262 24.2791 87.2882 24.0723L84.3121 23.7953C81.8096 23.5767 79.9621 23.4978 76.8492 23.4978C73.1928 23.4978 71.2555 24.0922 68.2106 25.8105L67.4913 26.2242C64.2136 28.1277 62.1791 28.8718 58.6685 28.9448L58.0693 28.9509C54.6745 28.9509 52.7857 30.5691 49.8245 35.2771L49.0161 36.5913C45.5242 42.337 43.4175 44.4012 39.2894 44.4012C34.7084 44.4012 32.6191 39.3243 29.1956 24.3295L28.1697 19.8031C25.2707 7.25779 23.3642 2.59448 20.5095 2.59448C16.6485 2.59448 12.4041 6.02567 8.19588 11.7828C6.69215 13.84 5.30146 16.0484 4.05958 18.257C3.73357 18.8368 3.43562 19.3853 3.16756 19.8947L2.70314 20.7963L2.50987 21.1882L0.949219 20.4423L1.37117 19.5998L1.92195 18.5536C2.1189 18.1877 2.32904 17.8055 2.55185 17.4093C3.82514 15.1447 5.25144 12.8798 6.79944 10.7621C11.3105 4.59067 15.9195 0.864746 20.5095 0.864746Z" fill="#EC6666"/>
<defs>
<linearGradient id="paint0_linear_745_2113" x1="1.72974" y1="1.72949" x2="1.72974" y2="63.9998" gradientUnits="userSpaceOnUse">
<stop stop-color="#EC6666"/>
<stop offset="1" stop-color="#EC6666" stop-opacity="0.103475"/>
</linearGradient>
</defs>
</svg>
